<svg width="222" height="6" viewBox="0 0 222 6" fill="none" xmlns="http://www.w3.org/2000/svg">
<path fill-rule="evenodd" clip-rule="evenodd" d="M5.05553 2.48486C9.74993 2.73363 22.0751 2.56911 55.533 2.11114C107.779 1.39405 149.248 1.1363 160.78 1.47549C161.696 1.50971 88.4661 2.93079 80.9416 2.78693C69.2112 2.5459 13.2251 3.71459 1.96524 4.35563C-1.23565 4.52947 -0.0281027 4.95628 2.0608 5.02095C5.32306 5.13194 14.0733 4.98799 38.065 4.60508C54.9364 4.34226 189.172 2.74259 203.851 3.17858C212.092 3.42306 217.101 3.6831 219.388 3.57026C221.303 3.47874 221.328 3.28787 219.662 2.78841C218.542 2.45557 219.797 2.23084 220.596 2.12389C221.824 1.94719 221.301 1.41511 219.751 1.0092C217.654 0.452535 214.052 0.521144 215.776 1.08325C216.15 1.20478 216.24 1.52094 214.924 1.47671C211.089 1.34234 183.99 0.43731 176.637 0.322687C98.1342 -0.941162 21.5796 1.94139 5.35705 1.59149C-0.39401 1.45343 2.25034 2.33543 5.05553 2.48486Z" fill="#25B4F8"/>
</svg>
